<?xml version="1.0" standalone="no"?>
<!DOCTYPE svg PUBLIC "-//W3C//DTD SVG 20010904//EN"
 "http://www.w3.org/TR/2001/REC-SVG-20010904/DTD/svg10.dtd">
<svg version="1.0" xmlns="http://www.w3.org/2000/svg"
 width="500.000000pt" height="500.000000pt" viewBox="0 0 500.000000 500.000000"
 preserveAspectRatio="xMidYMid meet">

<g transform="translate(0.000000,500.000000) scale(0.100000,-0.100000)"
fill="#000000" stroke="none">
<path d="M2187 4540 c-215 -54 -306 -308 -173 -482 l35 -45 -17 -49 c-15 -45
-17 -146 -20 -1113 -1 -654 1 -1091 7 -1135 34 -242 252 -407 493 -374 184 25
338 177 368 364 6 35 10 408 10 900 0 836 0 841 -21 868 -28 35 -70 35 -98 0
-21 -27 -21 -32 -21 -894 0 -981 5 -920 -81 -1014 -90 -99 -223 -128 -339 -75
-74 35 -110 67 -145 131 l-30 53 -3 1098 c-1 702 1 1112 8 1135 l9 37 88 0
c72 0 96 5 131 23 87 46 143 123 166 227 10 43 15 50 35 50 22 0 26 -7 38 -60
23 -102 75 -171 163 -217 35 -18 65 -24 132 -26 l87 -4 8 -36 c5 -21 8 -604 8
-1297 l0 -1260 -23 -65 c-36 -99 -79 -169 -151 -241 -185 -186 -474 -220 -706
-84 -73 42 -165 141 -207 220 -71 137 -68 76 -68 1233 0 1036 0 1039 -21 1066
-25 32 -68 35 -95 5 -18 -20 -19 -53 -19 -1073 0 -977 1 -1056 18 -1121 53
-207 195 -382 384 -472 97 -47 160 -62 278 -69 169 -10 324 38 467 146 87 66
148 143 203 255 79 162 75 89 75 1485 0 1088 -2 1249 -16 1310 l-15 68 35 47
c91 118 83 280 -17 392 -52 57 -118 87 -204 91 -105 6 -163 -16 -235 -90 l-58
-58 -61 0 c-60 0 -61 0 -105 49 -76 84 -198 125 -297 101z m187 -55 c94 -45
150 -137 150 -246 0 -54 -5 -74 -30 -120 -38 -66 -97 -114 -171 -135 -67 -19
-117 -14 -190 22 -165 80 -197 302 -63 432 22 23 60 48 83 56 56 21 170 16
221 -9z m672 -3 c53 -27 117 -100 132 -150 20 -65 15 -151 -12 -208 -41 -88
-144 -154 -241 -154 -140 0 -275 133 -275 270 0 110 88 224 200 261 43 14 152
4 196 -19z"/>
<path d="M2287 4337 c-80 -65 -35 -197 67 -197 69 0 116 44 116 110 0 93 -111
146 -183 87z m141 -26 c23 -14 10 -46 -21 -49 -23 -3 -27 0 -27 22 0 21 10 32
30 35 3 0 11 -3 18 -8z"/>
<path d="M2972 4347 c-34 -19 -55 -55 -56 -96 -1 -48 26 -89 72 -108 76 -32
152 23 152 111 0 54 -52 106 -106 106 -22 -1 -49 -6 -62 -13z m122 -33 c20 -8
21 -50 1 -58 -36 -14 -61 24 -33 52 14 14 12 14 32 6z"/>
</g>
</svg>
